<svg xmlns="http://www.w3.org/2000/svg" width="49" height="49" viewBox="0 0 49 49"><defs><clipPath id="a"><path fill="#fff" d="M387 553v-25h49v25z"/></clipPath><clipPath id="b"><path fill="#fff" d="M387 553v-25h49v25z"/></clipPath><clipPath id="c"><path fill="#fff" d="M387 553v-49h25v49z"/></clipPath><clipPath id="d"><path fill="#fff" d="M387 553v-49h25v49z"/></clipPath></defs><path fill="#fff" fill-opacity=".5" d="M0 49V24h49v25z"/><path fill="#fff" fill-opacity=".5" d="M0 49V24h49v25z"/><path fill="none" stroke="#fff" stroke-linecap="round" stroke-linejoin="round" stroke-miterlimit="50" stroke-width="2" d="M387 553v-25h49v25z" clip-path="url(&quot;#a&quot;)" transform="translate(-387 -504)"/><path fill="none" stroke="#fff" stroke-miterlimit="50" stroke-width="2" d="M387 553v-25h49v25z" clip-path="url(&quot;#b&quot;)" transform="translate(-387 -504)"/><path fill="none" d="M0 49V0h25v49z"/><path fill="none" d="M0 49V0h25v49z"/><path fill="none" stroke="#fff" stroke-linecap="round" stroke-linejoin="round" stroke-miterlimit="50" stroke-width="2" d="M387 553v-49h25v49z" clip-path="url(&quot;#c&quot;)" transform="translate(-387 -504)"/><path fill="none" stroke="#fff" stroke-miterlimit="50" stroke-width="2" d="M387 553v-49h25v49z" clip-path="url(&quot;#d&quot;)" transform="translate(-387 -504)"/></svg>