<svg xmlns="http://www.w3.org/2000/svg" width="10" height="35" viewBox="0 0 10 35"><defs><clipPath id="a"><path fill="#fff" d="M577.12 278.88a4.04 4.04 0 0 1 7.76 2.24 4.04 4.04 0 0 1-7.76-2.24z"/></clipPath><clipPath id="b"><path fill="#fff" d="M577.12 303.88a4.04 4.04 0 0 1 7.76 2.24 4.04 4.04 0 0 1-7.76-2.24z"/></clipPath></defs><path fill="none" stroke="#3b3b3b" stroke-miterlimit="50" stroke-width="2" d="M577.12 278.88a4.04 4.04 0 0 1 7.76 2.24 4.04 4.04 0 0 1-7.76-2.24z" clip-path="url(&quot;#a&quot;)" transform="translate(-576 -275)"/><path fill="none" stroke="#3b3b3b" stroke-miterlimit="50" stroke-width="2" d="M577.12 303.88a4.04 4.04 0 0 1 7.76 2.24 4.04 4.04 0 0 1-7.76-2.24z" clip-path="url(&quot;#b&quot;)" transform="translate(-576 -275)"/><path fill="#4f8bce" d="M2.67 4.33a2.42 2.42 0 1 1 4.66 1.34 2.42 2.42 0 1 1-4.66-1.34z"/></svg>