<svg xmlns="http://www.w3.org/2000/svg" width="14" height="19" viewBox="0 0 14 19"><defs><clipPath id="a"><path fill="#fff" d="M626 663v-7h1v7z"/></clipPath><clipPath id="b"><path fill="#fff" d="M626.16 662.49l6.45-2.6.23.52-6.46 2.6z"/></clipPath><clipPath id="c"><path fill="#fff" d="M626.47 662.3l.11-2.8 2.92 2.23z"/></clipPath><clipPath id="d"><path fill="#fff" d="M633.58 645l6.42 3.9-7 11.16-7-3.9z"/></clipPath><clipPath id="e"><path fill="#fff" d="M635.92 646.12l1.75 1.67-7 11.15-2.34-1.67z"/></clipPath></defs><path fill="none" stroke="#fff" stroke-miterlimit="50" stroke-width="2" d="M626 663v-7h1v7z" clip-path="url(&quot;#a&quot;)" transform="translate(-626 -645)"/><path fill="none" stroke="#fff" stroke-miterlimit="50" stroke-width="2" d="M626.16 662.49l6.45-2.6.23.52-6.46 2.6z" clip-path="url(&quot;#b&quot;)" transform="translate(-626 -645)"/><path fill="none" stroke="#fff" stroke-miterlimit="50" stroke-width="2" d="M626.47 662.3l.11-2.8 2.92 2.23z" clip-path="url(&quot;#c&quot;)" transform="translate(-626 -645)"/><path fill="none" stroke="#fff" stroke-miterlimit="50" stroke-width="2" d="M633.58 645l6.42 3.9-7 11.16-7-3.9z" clip-path="url(&quot;#d&quot;)" transform="translate(-626 -645)"/><path fill="none" stroke="#fff" stroke-miterlimit="50" stroke-width="2" d="M635.92 646.12l1.75 1.67-7 11.15-2.34-1.67z" clip-path="url(&quot;#e&quot;)" transform="translate(-626 -645)"/></svg>