<svg xmlns="http://www.w3.org/2000/svg" width="13" height="15" viewBox="0 0 13 15"><defs><clipPath id="a"><path fill="#fff" d="M959 227v-13h13v13zm1-6.8v.07a5.2 5.2 0 1 0 10.4 0v-.07a5.2 5.2 0 0 0-10.4 0z"/></clipPath></defs><path fill="#939393" d="M6.63 6.4c.5-.28 1.13-.11 1.42.39l3.81 6.64c.29.5.12 1.14-.38 1.43-.5.29-1.13.11-1.42-.39L6.25 7.83c-.29-.5-.12-1.14.38-1.43z"/><path fill="#939393" d="M6.2 1a5.2 5.2 0 0 1 5.2 5.2v.07a5.2 5.2 0 0 1-10.4 0V6.2A5.2 5.2 0 0 1 6.2 1z"/><path fill="none" stroke="#fff" stroke-linecap="round" stroke-linejoin="round" stroke-miterlimit="50" stroke-width="2" d="M965.2 215a5.2 5.2 0 0 1 5.2 5.2v.07a5.2 5.2 0 0 1-10.4 0v-.07a5.2 5.2 0 0 1 5.2-5.2z" clip-path="url(&quot;#a&quot;)" transform="translate(-959 -214)"/></svg>